<?xml version="1.0" standalone="no"?>
<!DOCTYPE svg PUBLIC "-//W3C//DTD SVG 20010904//EN"
 "http://www.w3.org/TR/2001/REC-SVG-20010904/DTD/svg10.dtd">
<svg version="1.0" xmlns="http://www.w3.org/2000/svg"
 width="400.000000pt" height="400.000000pt" viewBox="0 0 400.000000 400.000000"
 preserveAspectRatio="xMidYMid meet">

<g transform="translate(0.000000,400.000000) scale(0.100000,-0.100000)"
fill="#000000" stroke="none">
<path d="M530 2025 l0 -825 185 0 186 0 -3 340 -3 340 251 0 251 0 7 103 c3
56 9 130 12 165 l7 62 -262 0 -261 0 0 134 c0 74 -3 141 -6 150 -6 14 27 16
323 16 l330 0 46 74 c54 85 154 183 233 227 30 17 54 33 54 35 0 2 -304 4
-675 4 l-675 0 0 -825z"/>
<path d="M2240 2844 c-177 -26 -271 -54 -372 -114 -183 -109 -307 -289 -352
-510 -14 -72 -18 -141 -17 -277 l1 -63 435 0 c341 0 435 -3 435 -12 0 -7 -13
-40 -29 -73 -34 -73 -110 -147 -187 -182 -104 -47 -147 -52 -475 -53 l-306 0
-56 -117 c-30 -65 -69 -146 -85 -180 l-29 -63 381 0 c424 0 516 8 654 59 331
121 501 390 502 792 l0 137 -63 11 c-39 7 -208 11 -430 11 -300 0 -367 2 -367
13 0 31 64 138 104 175 106 98 171 112 515 112 317 0 382 -9 510 -71 151 -74
251 -201 282 -357 54 -281 -167 -522 -482 -522 -85 0 -86 -1 -134 -84 -41 -72
-146 -170 -238 -224 -81 -47 -81 -47 -47 -50 19 -2 152 -2 295 1 240 4 267 6
358 30 155 41 263 103 377 217 161 160 222 308 223 545 1 158 -16 233 -78 360
-132 267 -394 444 -720 484 -81 10 -543 14 -605 5z"/>
</g>
</svg>
